<mxfile host="app.diagrams.net" modified="2023-10-28T08:47:46.962Z" agent="Mozilla/5.0 (Macintosh; Intel Mac OS X 10_15_7) AppleWebKit/537.36 (KHTML, like Gecko) Chrome/118.0.0.0 Safari/537.36" version="21.6.5" etag="zjYOYt7-BOI232Wi6162" type="github">
  <diagram name="第 1 页" id="BMRQ2cpeIBCajHFqDRwW">
    <mxGraphModel>
      <root>
        <mxCell id="0" />
        <mxCell id="1" parent="0" />
      </root>
    </mxGraphModel>
  </diagram>
</mxfile>
